# xmcd CD database file
#
# Track frame offsets:
#	150
#	39135
#	94590
#	125230
#	176232
#	221647
#	258075
#
# Disc length: 3781 seconds
#
# Revision: 0
# Processed by: cddbd v1.5.2PL0 Copyright (c) Steve Scherf et al.
# Submitted via: CDex 1.51
#
DISCID=5d0ec307
DTITLE=Sonny Rollins - JAZZ BASICS
DYEAR=1900
DGENRE=Jazz
TTITLE0=Valse Hot
TTITLE1=Tenor Madness
TTITLE2=St. Thomas
TTITLE3=Blue Seven
TTITLE4=Moritat (Mack The Knife)
TTITLE5=Decision
TTITLE6=I'm An Old Cowhand
EXTD=
EXTT0=
EXTT1=
EXTT2=
EXTT3=
EXTT4=
EXTT5=
EXTT6=
PLAYORDER=
